<svg width="1468.636" height="179.321" viewBox="0 0 1468.636 179.321" xmlns="http://www.w3.org/2000/svg"><g id="svgGroup" stroke-linecap="round" fill-rule="evenodd" font-size="9pt" stroke="#878787" stroke-width=".5MM" fill="#878787" style="stroke:#878787;stroke-width:.5MM;fill:#878787"><path d="M 96.818 176.933 L 51.477 176.933 L 0 2.387 L 52.841 2.387 L 76.705 109.774 L 78.068 109.774 L 106.364 2.387 L 147.955 2.387 L 176.25 110.115 L 177.614 110.115 L 201.477 2.387 L 254.318 2.387 L 202.841 176.933 L 157.5 176.933 L 127.841 79.433 L 126.477 79.433 L 96.818 176.933 Z M 1357.159 176.933 L 1309.773 176.933 L 1309.773 2.387 L 1357.159 2.387 L 1357.159 72.956 L 1359.545 72.956 L 1412.045 2.387 L 1467.273 2.387 L 1408.295 80.115 L 1468.636 176.933 L 1412.045 176.933 L 1372.841 111.478 L 1357.159 131.933 L 1357.159 176.933 Z M 395.114 176.933 L 269.659 176.933 L 269.659 2.387 L 395.455 2.387 L 395.455 40.569 L 317.045 40.569 L 317.045 70.569 L 388.977 70.569 L 388.977 108.751 L 317.045 108.751 L 317.045 138.751 L 395.114 138.751 L 395.114 176.933 Z M 749.318 56.933 L 703.977 56.933 A 22.512 22.512 0 0 0 702.684 50.847 A 17.033 17.033 0 0 0 697.628 43.637 Q 693.465 40.132 686.153 39.201 A 45.23 45.23 0 0 0 680.455 38.865 A 50.717 50.717 0 0 0 675.733 39.071 Q 671.528 39.465 668.48 40.612 Q 664.788 42.001 662.631 44.17 A 10.771 10.771 0 0 0 661.619 45.342 Q 659.403 48.325 659.318 52.16 A 13.199 13.199 0 0 0 659.299 52.873 Q 659.299 54.652 659.797 56.219 A 9.901 9.901 0 0 0 660.469 57.828 A 11.166 11.166 0 0 0 662.437 60.477 Q 663.378 61.43 664.608 62.29 A 18.736 18.736 0 0 0 664.687 62.345 Q 667.062 63.986 670.523 65.369 A 46.87 46.87 0 0 0 672.102 65.967 A 62.676 62.676 0 0 0 676.381 67.319 Q 678.601 67.939 681.125 68.498 A 112.955 112.955 0 0 0 682.841 68.865 L 697.159 71.933 A 133.648 133.648 0 0 1 709.037 74.993 Q 716.159 77.201 721.96 80.03 Q 732.273 85.058 738.835 91.833 A 43.183 43.183 0 0 1 748.509 107.047 A 52.065 52.065 0 0 1 751.473 120.566 A 61.968 61.968 0 0 1 751.705 125.456 A 58.262 58.262 0 0 1 750.015 139.508 A 44.522 44.522 0 0 1 743.097 154.603 A 49.117 49.117 0 0 1 727.509 168.559 A 64.371 64.371 0 0 1 718.764 172.757 A 83.925 83.925 0 0 1 702.548 177.222 Q 694.595 178.622 685.504 178.906 A 150.691 150.691 0 0 1 680.795 178.978 Q 658.04 178.978 641.122 172.245 A 58.602 58.602 0 0 1 624.293 162.196 A 52.634 52.634 0 0 1 614.872 151.493 A 53.225 53.225 0 0 1 607.601 134.514 Q 605.495 125.922 605.455 115.569 L 650.455 115.569 A 32.73 32.73 0 0 0 651.375 121.874 A 23.427 23.427 0 0 0 654.46 129.035 A 21.842 21.842 0 0 0 662.976 136.558 A 26.923 26.923 0 0 0 664.56 137.302 Q 670.659 139.933 678.96 140.103 A 56.499 56.499 0 0 0 680.114 140.115 A 50.967 50.967 0 0 0 685.455 139.851 Q 688.056 139.576 690.28 139.016 A 25.387 25.387 0 0 0 692.812 138.24 A 22.17 22.17 0 0 0 696.43 136.554 Q 698.464 135.357 699.904 133.812 A 12.964 12.964 0 0 0 700.568 133.041 A 12.27 12.27 0 0 0 703.295 125.456 Q 703.21 121.45 700.696 118.424 A 13.868 13.868 0 0 0 698.39 116.261 Q 696.063 114.497 692.472 112.97 Q 686.888 110.595 677.474 108.505 A 169.951 169.951 0 0 0 677.045 108.41 L 659.659 104.66 A 106.654 106.654 0 0 1 643.657 99.936 Q 631.475 95.205 623.139 87.828 Q 609.886 76.099 609.886 55.829 A 62.246 62.246 0 0 1 609.886 55.569 A 60.779 60.779 0 0 1 609.886 55.258 Q 609.886 46.019 612.704 38.063 A 46.108 46.108 0 0 1 618.793 26.464 A 56.18 56.18 0 0 1 636.155 10.86 A 71.193 71.193 0 0 1 643.764 6.99 A 82.083 82.083 0 0 1 664.996 1.067 A 107.899 107.899 0 0 1 680.455 0.001 A 106.265 106.265 0 0 1 697.856 1.355 Q 707.685 2.987 715.925 6.586 A 65.845 65.845 0 0 1 717.017 7.075 A 59.86 59.86 0 0 1 731.741 16.493 A 51.452 51.452 0 0 1 740.838 26.976 A 51.95 51.95 0 0 1 748.941 50.151 A 65.531 65.531 0 0 1 749.318 56.933 Z M 1288.295 67.842 L 1240.227 67.842 A 35.772 35.772 0 0 0 1238.987 60.982 A 30.091 30.091 0 0 0 1237.543 57.018 A 25.693 25.693 0 0 0 1231.577 48.623 A 25.357 25.357 0 0 0 1224.452 43.98 A 30.195 30.195 0 0 0 1222.415 43.169 A 32.239 32.239 0 0 0 1215.722 41.592 A 42.523 42.523 0 0 0 1210.227 41.251 A 40.793 40.793 0 0 0 1200.658 42.321 A 30.641 30.641 0 0 0 1190.071 47.047 A 33.169 33.169 0 0 0 1180.318 57.975 A 43.443 43.443 0 0 0 1177.628 63.666 A 57.894 57.894 0 0 0 1174.6 74.768 Q 1173.651 80.213 1173.458 86.437 A 104.159 104.159 0 0 0 1173.409 89.66 A 99.076 99.076 0 0 0 1174.014 100.94 Q 1175.023 109.726 1177.713 116.464 A 40.027 40.027 0 0 0 1182.215 124.862 A 30.236 30.236 0 0 0 1190.199 132.657 A 32.237 32.237 0 0 0 1202.938 137.527 A 42.957 42.957 0 0 0 1209.886 138.069 A 44.485 44.485 0 0 0 1216.108 137.654 A 33.618 33.618 0 0 0 1221.648 136.407 Q 1226.847 134.745 1230.682 131.592 Q 1234.517 128.439 1236.946 123.964 A 29.244 29.244 0 0 0 1239.663 116.772 A 35.182 35.182 0 0 0 1240.227 113.865 L 1288.295 114.206 A 60.876 60.876 0 0 1 1284.989 129.621 A 75.254 75.254 0 0 1 1282.074 136.748 A 71.334 71.334 0 0 1 1270.112 154.507 A 83.353 83.353 0 0 1 1266.861 157.885 A 69.754 69.754 0 0 1 1250.722 169.613 A 85.922 85.922 0 0 1 1242.528 173.439 A 77.569 77.569 0 0 1 1225.28 178.112 A 106.354 106.354 0 0 1 1208.864 179.319 A 96.236 96.236 0 0 1 1183.403 176.056 A 82.621 82.621 0 0 1 1165.781 169.007 A 74.121 74.121 0 0 1 1136.394 139.908 A 88.511 88.511 0 0 1 1135.696 138.666 A 85.004 85.004 0 0 1 1127.084 114.86 Q 1124.962 104.695 1124.697 93.025 A 148.095 148.095 0 0 1 1124.659 89.66 Q 1124.659 60.512 1135.909 40.527 A 77.604 77.604 0 0 1 1155.344 17.431 A 73.919 73.919 0 0 1 1166.25 10.271 A 86.894 86.894 0 0 1 1202.962 0.167 A 104.076 104.076 0 0 1 1208.864 0.001 A 105.921 105.921 0 0 1 1227.566 1.594 A 88.161 88.161 0 0 1 1239.29 4.518 A 75.511 75.511 0 0 1 1258.564 13.858 A 69.208 69.208 0 0 1 1263.665 17.686 Q 1274.148 26.336 1280.54 38.95 A 72.063 72.063 0 0 1 1286.764 57.084 A 90.996 90.996 0 0 1 1288.295 67.842 Z M 1017.955 50.456 L 979.773 176.933 L 928.636 176.933 L 986.25 2.387 L 1051.023 2.387 L 1108.636 176.933 L 1057.5 176.933 L 1019.318 50.456 L 1017.955 50.456 Z M 413.182 2.387 L 466.705 2.387 L 502.5 125.456 L 503.864 125.456 L 539.659 2.387 L 593.182 2.387 L 535.568 176.933 L 470.795 176.933 L 413.182 2.387 Z M 817.5 40.569 L 765 40.569 L 765 2.387 L 916.705 2.387 L 916.705 40.569 L 864.205 40.569 L 864.205 176.933 L 817.5 176.933 L 817.5 40.569 Z M 970.227 143.524 L 970.227 108.069 L 1066.364 108.069 L 1066.364 143.524 L 970.227 143.524 Z" vector-effect="non-scaling-stroke"/></g></svg>